<svg width="176" height="176" viewBox="0 0 176 176" fill="none" xmlns="http://www.w3.org/2000/svg">
  <defs>
    <linearGradient id="xharborCool" x1="42" y1="144" x2="130" y2="40" gradientUnits="userSpaceOnUse">
      <stop offset="0" stop-color="#2E44C7"/>
      <stop offset="0.48" stop-color="#2CCEF1"/>
      <stop offset="1" stop-color="#8DE9FF"/>
    </linearGradient>
    <linearGradient id="xharborLight" x1="38" y1="44" x2="136" y2="142" gradientUnits="userSpaceOnUse">
      <stop offset="0" stop-color="#FFFFFF"/>
      <stop offset="0.5" stop-color="#F3F7FF"/>
      <stop offset="1" stop-color="#C8D6EA"/>
    </linearGradient>
    <linearGradient id="xharborShade" x1="36" y1="122" x2="92" y2="70" gradientUnits="userSpaceOnUse">
      <stop offset="0" stop-color="#11235F"/>
      <stop offset="1" stop-color="#2E5FB4"/>
    </linearGradient>
    <linearGradient id="xharborShade2" x1="92" y1="108" x2="142" y2="150" gradientUnits="userSpaceOnUse">
      <stop offset="0" stop-color="#AFC3DD"/>
      <stop offset="1" stop-color="#EEF5FF"/>
    </linearGradient>
    <filter id="xharborShadow" x="8" y="10" width="160" height="156" filterUnits="userSpaceOnUse" color-interpolation-filters="sRGB">
      <feDropShadow dx="0" dy="16" stdDeviation="14" flood-color="#081227" flood-opacity="0.28"/>
    </filter>
  </defs>
  <g filter="url(#xharborShadow)">
    <path d="M40.7 132.5C34.7 126.5 34.7 116.8 40.7 110.8L108.9 42.6C114.9 36.6 124.6 36.6 130.6 42.6L141 53C147 59 147 68.7 141 74.7L72.8 142.9C66.8 148.9 57.1 148.9 51.1 142.9L40.7 132.5Z" fill="url(#xharborCool)"/>
    <path d="M39.8 43.3C45.8 37.3 55.5 37.3 61.5 43.3L134.4 116.2C140.4 122.2 140.4 131.9 134.4 137.9L123.9 148.4C117.9 154.4 108.2 154.4 102.2 148.4L29.3 75.5C23.3 69.5 23.3 59.8 29.3 53.8L39.8 43.3Z" fill="url(#xharborLight)"/>
    <path d="M55.8 57.6L82.3 84.1L55.3 111.1H40.8C34.8 105.1 34.7 95.4 40.7 89.4L55.8 74.2L40.7 59.1C40.4 58.8 40.1 58.5 39.8 58.2L40.3 57.6H55.8Z" fill="url(#xharborShade)" fill-opacity="0.92"/>
    <path d="M123.3 118L96.6 91.3L123.4 64.5H141C147 70.5 147 80.2 141 86.2L123.3 104V118Z" fill="#259CD4" fill-opacity="0.75"/>
    <path d="M134.4 116.2C140.4 122.2 140.4 131.9 134.4 137.9L123.9 148.4C117.9 154.4 108.2 154.4 102.2 148.4L92.3 138.5L111.1 138.5L115.1 112.9L134.4 116.2Z" fill="url(#xharborShade2)" fill-opacity="0.95"/>
  </g>
</svg>
